# xmcd
#
# Track frame offsets:
#	150
#	11704
#	22249
#	36034
#	47227
#	58303
#	72984
#	85378
#	97643
#	105653
#	113892
#
# Disc length: 1684 seconds
#
# Revision: 1
# Processed by: cddbd v1.5.2PL0 Copyright (c) Steve Scherf et al.
# Submitted via: audiograbber 1.83.01
#
DISCID=9206920b
DTITLE=Johnny Cash and June Carter Cash - Carryin' On with Johnny Cash and June C
DTITLE=arter
DYEAR=1967
DGENRE=Country
TTITLE0=Long Legged Guitar Pickin' Man
TTITLE1=Shantytown
TTITLE2=It Ain't Me, Babe
TTITLE3=Fast Boat to Sydney
TTITLE4=Pack Up Your Sorrows
TTITLE5=I Got a Woman
TTITLE6=Jackson
TTITLE7=Oh, What a Good Thing We Had
TTITLE8=You'll Be All Right
TTITLE9=No, No, No
TTITLE10=What'd I Say
EXTD=
EXTT0=
EXTT1=
EXTT2=
EXTT3=
EXTT4=
EXTT5=
EXTT6=
EXTT7=
EXTT8=
EXTT9=
EXTT10=
PLAYORDER=
